<svg version="1.1" id="Layer_1" xmlns="http://www.w3.org/2000/svg" xmlns:xlink="http://www.w3.org/1999/xlink" x="0px" y="0px"
	 width="100%" viewBox="0 0 752 592" enable-background="new 0 0 752 592" xml:space="preserve">
<path fill="#D5E2FF" opacity="1.000000" stroke="none" 
	d="M641.000000,283.300720 
	C610.003418,283.318542 579.506531,283.408844 549.010376,283.301849 
	C541.495483,283.275482 534.043396,284.098480 526.554688,284.264496 
	C520.186340,284.405701 516.994263,281.178802 516.881775,274.845764 
	C516.764893,268.270477 519.395874,265.743439 526.428101,265.654907 
	C528.593018,265.627655 530.787109,265.778320 532.917358,265.483154 
	C545.994202,263.671265 552.284546,256.921204 552.596436,243.425598 
	C552.989136,226.436646 552.914551,209.435577 552.934326,192.439590 
	C552.979431,153.777237 552.978760,115.114777 552.938538,76.452431 
	C552.933838,71.971901 552.989380,67.478638 552.015930,63.032845 
	C549.386047,51.021408 543.700378,46.101208 531.330505,45.391464 
	C529.502625,45.286579 527.664307,45.377930 525.832275,45.327156 
	C519.359192,45.147739 516.760010,42.431923 516.873901,36.002335 
	C516.979614,30.037689 520.237061,26.492868 526.149414,26.695122 
	C583.455505,28.655462 640.779114,27.217472 698.091919,27.703642 
	C706.426086,27.774338 709.963501,31.135601 710.122559,39.597694 
	C710.451050,57.084957 710.434875,74.576111 711.218018,92.057457 
	C711.516113,98.712265 708.230225,102.199974 701.622314,103.235954 
	C694.473328,104.356750 687.778259,101.028427 686.445312,95.153122 
	C684.425659,86.251007 683.226624,77.161087 680.337952,68.457550 
	C675.180603,52.918690 666.087524,45.798782 649.692688,45.458153 
	C632.868530,45.108597 616.031006,45.449551 599.200439,45.332779 
	C595.495239,45.307076 594.285522,46.712376 594.297058,50.354317 
	C594.393066,80.517349 594.438904,110.681389 594.251404,140.843582 
	C594.222778,145.451492 596.314697,145.992966 600.023987,145.978119 
	C621.021301,145.894165 642.019409,145.895355 663.016724,145.986908 
	C670.700378,146.020401 674.370789,150.432556 673.245117,157.835220 
	C672.475098,162.898849 669.967468,165.010681 664.202271,165.027756 
	C643.538086,165.088989 622.873535,165.063446 602.209167,165.080307 
	C594.346741,165.086731 594.345825,165.098557 594.346069,173.067184 
	C594.346802,194.398178 594.407410,215.729477 594.299377,237.059906 
	C594.278076,241.269272 594.936707,245.380478 595.690125,249.427719 
	C597.584656,259.605103 603.862610,265.237274 615.567322,265.422638 
	C633.027039,265.699097 650.535461,266.718933 667.979919,264.698822 
	C679.469788,263.368225 687.304199,257.291901 691.733643,246.668716 
	C695.132690,238.516769 698.187134,230.230408 700.379333,221.682678 
	C701.796082,216.158676 705.395508,213.345901 710.603760,212.996338 
	C715.810364,212.646866 720.992188,213.629700 724.563843,218.100525 
	C726.064148,219.978561 726.280518,222.238510 725.871216,224.726349 
	C723.256531,240.618729 720.773926,256.532928 718.271301,272.443634 
	C716.993347,280.568390 714.015381,283.251129 705.489807,283.280914 
	C684.160095,283.355469 662.829956,283.302307 641.000000,283.300720 
z"/>

<path fill="#D5E2FF" opacity="1.000000" stroke="none" 
	d="M81.000107,27.666719 
	C120.827873,27.669048 160.155640,27.665962 199.483398,27.677530 
	C211.467133,27.681055 214.458084,30.432529 214.263641,42.316551 
	C213.996307,58.656864 215.317352,74.949715 215.341156,91.275803 
	C215.352280,98.900291 212.217331,102.577538 205.018661,103.296776 
	C198.718903,103.926216 191.116150,101.074776 190.211456,93.951706 
	C189.124725,85.395248 187.159546,76.947815 184.545364,68.687996 
	C178.428207,49.360188 167.820175,46.178509 153.606720,45.548336 
	C136.808914,44.803581 119.952446,45.426910 103.122086,45.333836 
	C99.755463,45.315216 98.330269,46.448261 98.339638,49.961079 
	C98.420975,80.456474 98.443642,110.952370 98.333382,141.447556 
	C98.318420,145.583511 100.491661,145.973236 103.703423,145.965683 
	C124.866951,145.915909 146.030746,145.914246 167.194290,145.969284 
	C174.016174,145.987045 176.699768,148.332993 177.301071,154.409302 
	C178.017380,161.647781 175.074295,165.018066 167.771622,165.036652 
	C147.274658,165.088821 126.777489,165.062759 106.280403,165.074402 
	C98.391815,165.078888 98.399101,165.087326 98.398682,173.173935 
	C98.397606,193.837677 98.455025,214.501785 98.332809,235.164841 
	C98.305969,239.702606 98.939468,244.149551 99.722717,248.533524 
	C101.679779,259.487457 107.914795,265.262421 119.885498,265.436035 
	C137.179779,265.686859 154.515930,266.646729 171.800781,264.734467 
	C183.512466,263.438843 191.454422,257.323212 195.990723,246.535294 
	C199.416229,238.389084 202.279633,230.040482 204.588150,221.529984 
	C206.015579,216.267685 209.381805,213.433899 214.424240,213.050934 
	C219.809433,212.641922 225.149948,213.485474 228.776566,218.256973 
	C230.240982,220.183655 230.520813,222.478409 230.119492,224.918854 
	C227.479080,240.975388 224.924911,257.046112 222.284576,273.102631 
	C220.997162,280.931793 217.785263,283.301025 208.453445,283.306885 
	C156.960770,283.339264 105.468025,283.305145 53.975506,283.401337 
	C46.156834,283.415955 38.341629,284.103180 30.520334,284.274292 
	C24.281435,284.410828 21.151819,281.049927 21.131193,274.631927 
	C21.110109,268.070465 23.443678,265.772369 30.258137,265.657959 
	C31.757593,265.632751 33.260632,265.696564 34.756790,265.618774 
	C48.724850,264.892273 55.380417,258.070160 56.786854,244.187683 
	C57.664135,235.528305 57.613476,226.896759 57.619373,218.245087 
	C57.650837,172.085007 57.594791,125.924789 57.687252,79.764854 
	C57.697662,74.567291 57.136215,69.438530 56.467010,64.347771 
	C54.860615,52.127548 47.839695,46.029797 35.296055,45.383957 
	C33.633446,45.298351 31.963583,45.363323 30.297577,45.332123 
	C23.648926,45.207611 21.154020,42.763260 21.078167,36.316830 
	C21.006031,30.186640 24.375092,26.598398 30.547709,26.681187 
	C47.200123,26.904526 63.832859,28.144596 81.000107,27.666719 
z"/>
<path fill="#D5E2FF" opacity="1.000000" stroke="none" 
	d="M42.465023,410.506042 
	C37.727596,406.657410 32.339046,406.570404 27.016260,406.400330 
	C20.144087,406.180695 17.721224,404.465363 17.137207,399.095795 
	C16.553381,393.728088 19.118025,390.706573 25.594687,389.597870 
	C40.688240,387.014099 55.640518,383.922699 69.938438,378.240051 
	C71.010559,377.813934 72.179123,377.620636 73.312050,377.358948 
	C81.503326,375.466736 84.885384,378.026184 85.127838,386.536713 
	C85.293877,392.365051 85.181152,398.201050 85.231339,404.033295 
	C85.241081,405.165253 85.427750,406.295654 85.637939,408.558777 
	C91.119667,403.892822 95.880737,399.644836 100.844673,395.648865 
	C122.583374,378.149170 147.146317,374.355164 173.259689,382.529633 
	C195.744339,389.568176 210.206909,410.820160 210.305191,434.822235 
	C210.426666,464.484802 210.343918,494.148224 210.347305,523.811279 
	C210.347855,528.638611 210.456726,533.429749 211.187820,538.245605 
	C212.457993,546.612183 216.754456,550.931152 225.320145,551.587769 
	C227.309906,551.740295 229.318787,551.624451 231.317154,551.686951 
	C238.436508,551.909607 240.479019,553.804016 240.328415,559.998413 
	C240.179474,566.124451 237.719040,568.678589 231.174026,568.281433 
	C212.362549,567.139893 193.539597,567.299622 174.717606,567.432556 
	C166.896606,567.487793 159.081619,568.143127 151.259216,568.324280 
	C145.199432,568.464600 142.357040,565.557434 142.291016,559.614563 
	C142.228668,554.002930 144.414200,551.939514 150.747528,551.682678 
	C154.228027,551.541504 157.699966,551.791016 161.152359,550.790771 
	C167.575836,548.929810 170.891998,544.552124 171.733429,537.904480 
	C173.142929,526.768677 172.207489,515.614319 172.444397,504.479492 
	C172.890945,483.491486 172.682419,462.486664 172.540222,441.490204 
	C172.466019,430.536865 170.054153,420.422821 161.330368,412.648315 
	C153.872040,406.001587 145.087311,402.617432 135.389893,402.516144 
	C116.026909,402.313873 100.230614,410.057526 88.255440,425.423706 
	C86.213730,428.043610 85.288513,430.785217 85.297722,434.151642 
	C85.385750,466.314148 85.312126,498.477142 85.405479,530.639587 
	C85.416031,534.273682 85.856400,537.975464 86.648651,541.522766 
	C87.968597,547.432800 93.377365,551.181091 100.593323,551.595459 
	C103.419083,551.757751 106.276283,551.527649 109.083786,551.818054 
	C113.894310,552.315796 115.549988,554.677185 115.332550,560.195618 
	C115.128494,565.374451 112.898613,568.322571 108.478493,568.280151 
	C101.158432,568.210083 93.843903,567.481812 86.524521,567.436096 
	C66.536514,567.311218 46.547760,567.130676 26.570406,568.303894 
	C19.475407,568.720581 15.983751,563.893188 17.583836,557.045105 
	C18.407919,553.518188 20.654686,552.021545 23.933725,551.774780 
	C26.587160,551.575256 29.267330,551.758423 31.927933,551.621765 
	C41.135532,551.148621 46.403732,545.979858 46.609901,536.742249 
	C46.907303,523.416748 47.028782,510.084503 47.015575,496.755341 
	C46.990982,471.927246 46.776077,447.099396 46.739029,422.271271 
	C46.732494,417.891144 45.511608,414.095917 42.465023,410.506042 
z"/>
<path fill="#D5E2FF" opacity="1.000000" stroke="none" 
	d="
M304.612640,35.240486 
	C317.235596,43.200813 324.253418,54.948170 329.188232,68.133575 
	C347.909912,118.156113 366.537415,168.213898 385.184113,218.264481 
	C385.759583,219.809204 386.077759,221.463623 387.535583,222.625763 
	C389.452423,221.183914 389.741028,218.926956 390.419067,216.959442 
	C407.819000,166.467377 425.171875,115.959091 442.531769,65.453232 
	C443.668396,62.146385 444.742126,58.832050 444.944855,55.293564 
	C445.250122,49.964691 443.565643,47.662773 438.270416,46.503712 
	C433.531891,45.466503 428.723999,45.320789 423.882111,45.277012 
	C417.542236,45.219692 415.455963,42.823841 415.437897,36.205349 
	C415.420471,29.821159 418.221191,26.678410 424.257996,26.677475 
	C437.745850,26.675383 451.194885,27.902824 464.702393,27.757654 
	C477.361389,27.621603 490.004883,27.363825 502.642761,26.664415 
	C506.131744,26.471325 509.431854,26.952513 511.101013,30.572531 
	C512.946594,34.575115 512.980469,38.673920 510.842773,42.586178 
	C509.567535,44.920021 507.147827,45.181065 504.765442,45.316124 
	C501.117676,45.522919 497.476196,45.499325 493.813110,45.835922 
	C478.717773,47.223003 469.807251,56.091606 464.280548,69.350395 
	C457.615845,85.339508 452.198883,101.788857 446.314819,118.065613 
	C426.459045,172.991486 406.608398,227.919189 386.815125,282.867554 
	C385.721008,285.904938 384.187714,287.334290 380.710327,287.393036 
	C365.389954,287.651825 365.318359,287.788452 360.121033,273.504974 
	C339.585693,217.069504 319.141693,160.600723 298.562836,104.181137 
	C294.288055,92.461273 289.670776,80.863335 285.051666,69.272827 
	C279.556000,55.482792 270.324921,46.290260 254.876816,44.099339 
	C247.034225,42.987072 246.444672,41.464855 246.614731,33.837627 
	C246.717896,29.210096 248.754730,26.710318 253.419327,26.331995 
	C271.127594,24.895769 288.289520,26.605095 304.612640,35.240486 
z"/>
<path fill="#D5E2FF" opacity="1.000000" stroke="none" 
	d="
M548.188843,427.767822 
	C542.084900,441.022552 534.256836,445.790924 521.404602,444.344421 
	C516.534180,443.796295 512.663879,441.386078 509.434113,437.781555 
	C507.478455,435.598907 507.556244,433.656372 509.864044,431.835968 
	C510.517456,431.320526 511.220245,430.866516 511.863007,430.338837 
	C522.705505,421.436981 521.659180,407.248322 509.624878,399.910492 
	C494.875153,390.916901 471.121704,392.288574 456.947632,402.099670 
	C444.171326,410.943237 445.869690,434.352539 459.046783,442.609161 
	C466.324829,447.169464 474.246948,450.134460 482.256470,452.936523 
	C497.176300,458.156036 512.387268,462.566498 526.895386,468.925568 
	C541.018188,475.115723 552.807739,483.733521 556.196838,499.913910 
	C561.539368,525.420288 550.973389,548.263428 528.150085,561.125732 
	C511.019928,570.779602 492.420776,573.302368 473.125122,571.947205 
	C458.076294,570.890198 443.445740,568.091370 430.019165,560.714783 
	C416.615997,553.351074 409.276001,542.400879 409.644653,526.757141 
	C410.032562,510.296448 423.872925,498.875305 440.067749,501.857239 
	C444.253357,502.627960 447.815399,504.750458 450.810242,507.842072 
	C452.887878,509.986816 453.456055,512.344971 451.189484,514.397034 
	C444.516083,520.438721 441.635620,527.643494 444.625702,536.332642 
	C447.764618,545.454224 454.991943,550.569153 463.855194,553.028076 
	C476.882416,556.642395 490.149750,557.106689 503.297028,553.510559 
	C519.662903,549.034180 528.118164,534.996582 524.671631,518.702576 
	C522.999573,510.797638 517.462524,506.214020 511.045563,502.345612 
	C502.817627,497.385468 493.558990,495.081696 484.504028,492.309906 
	C471.141815,488.219574 457.733826,484.375458 445.031128,478.332825 
	C414.396637,463.760071 410.970551,429.440277 423.004944,408.902771 
	C428.650909,399.267639 437.368408,392.683472 447.408966,388.194824 
	C472.125824,377.145111 497.412598,375.257660 523.133545,384.658966 
	C530.586548,387.383057 537.400391,391.329285 542.555908,397.426819 
	C550.006531,406.238953 551.615295,416.395233 548.188843,427.767822 
z"/>
<path fill="#D5E2FF" opacity="1.000000" stroke="none" 
	d="
M319.279419,408.156830 
	C319.291229,447.121368 319.336273,485.606567 319.264618,524.091614 
	C319.254822,529.357727 320.298157,534.324219 322.150177,539.171143 
	C326.203918,549.780090 334.747711,554.351624 347.013458,552.490662 
	C353.108185,551.565979 359.106506,550.328979 364.711395,547.562378 
	C373.408020,543.269653 377.061188,549.486572 378.534149,555.774719 
	C379.033539,557.906494 378.271576,559.737549 376.499451,561.048767 
	C359.117157,573.909607 325.185974,579.729736 305.905212,567.890503 
	C291.175385,558.845764 283.287262,545.401611 281.767151,528.582458 
	C279.229950,500.509735 281.169220,472.328857 280.727570,444.198425 
	C280.523621,431.206604 280.586945,418.207703 280.748505,405.214752 
	C280.793701,401.581665 279.723267,400.060486 275.925537,400.286713 
	C270.942566,400.583618 265.930237,400.349518 260.938751,400.549469 
	C255.136551,400.781921 252.758835,399.095276 251.936569,393.780518 
	C251.103973,388.398956 253.925156,383.858185 258.837860,382.689636 
	C260.292511,382.343597 261.754089,382.026672 263.212708,381.697296 
	C276.502563,378.695679 285.833588,370.696930 291.556885,358.567169 
	C294.604095,352.109100 297.441345,345.467224 299.482574,338.641907 
	C301.732544,331.118469 312.093353,331.022125 316.643402,334.501617 
	C318.486603,335.911102 318.429840,337.981079 318.327606,339.983978 
	C317.683502,352.605286 316.928040,365.221405 316.366547,377.846252 
	C316.104004,383.749420 316.661774,383.854675 322.537445,383.379944 
	C335.467285,382.335297 348.421722,381.595093 361.366119,380.731049 
	C365.581360,380.449707 367.788544,382.369110 368.546936,386.585510 
	C369.257843,390.537720 368.406250,394.158997 367.287567,397.833252 
	C366.155304,401.552216 363.493042,402.515106 359.926849,402.223053 
	C348.628235,401.297852 337.299072,401.325745 325.973663,401.233459 
	C319.340485,401.179413 319.340820,401.138184 319.279419,408.156830 
z"/>
</svg>