<?xml version="1.0" encoding="UTF-8"?>
<!DOCTYPE svg PUBLIC "-//W3C//DTD SVG 1.1//EN" "http://www.w3.org/Graphics/SVG/1.1/DTD/svg11.dtd">
<svg xmlns="http://www.w3.org/2000/svg" version="1.1" width="406px" height="128px" style="shape-rendering:geometricPrecision; text-rendering:geometricPrecision; image-rendering:optimizeQuality; fill-rule:evenodd; clip-rule:evenodd" xmlns:xlink="http://www.w3.org/1999/xlink">
<g><path style="opacity:0.633" fill="#48466d" d="M 44.5,-0.5 C 46.1667,-0.5 47.8333,-0.5 49.5,-0.5C 50.8465,5.69877 48.5132,8.19877 42.5,7C 39.7446,3.66057 40.4113,1.16057 44.5,-0.5 Z M 45.5,1.5 C 48.1009,2.92247 47.9342,4.2558 45,5.5C 43.9412,5.36992 43.1079,4.86992 42.5,4C 44.1193,3.76445 45.1193,2.93112 45.5,1.5 Z"/></g>
<g><path style="opacity:0.738" fill="#48466d" d="M 53.5,5.5 C 57.4076,7.51788 61.5742,8.85121 66,9.5C 68.1539,13.0584 67.6539,16.2251 64.5,19C 61.828,20.5574 58.9947,21.724 56,22.5C 52.1547,19.9815 49.6547,16.4815 48.5,12C 49.2686,9.07374 50.9353,6.90707 53.5,5.5 Z M 53.5,9.5 C 55.6847,9.88805 57.518,10.8881 59,12.5C 62.351,10.8527 63.6844,11.8527 63,15.5C 57.547,20.349 54.047,19.1824 52.5,12C 52.7432,11.0979 53.0766,10.2646 53.5,9.5 Z"/></g>
<g><path style="opacity:0.997" fill="#535170" d="M 119.5,13.5 C 120.833,13.5 122.167,13.5 123.5,13.5C 123.5,46.8333 123.5,80.1667 123.5,113.5C 122.167,113.5 120.833,113.5 119.5,113.5C 119.5,80.1667 119.5,46.8333 119.5,13.5 Z"/></g>
<g><path style="opacity:0.79" fill="#48466d" d="M 41.5,15.5 C 47.4756,14.8249 50.809,17.4916 51.5,23.5C 50.5382,28.2235 48.7049,32.5569 46,36.5C 40.5636,37.856 35.3969,37.0226 30.5,34C 25.1404,26.1263 27.1404,21.4596 36.5,20C 38.0632,18.264 39.7299,16.764 41.5,15.5 Z M 41.5,20.5 C 44.9304,19.7553 46.597,21.0886 46.5,24.5C 45.9007,27.7022 44.734,30.7022 43,33.5C 38.1188,33.4763 34.2855,31.4763 31.5,27.5C 31.8333,25.8333 32.8333,24.8333 34.5,24.5C 38.3977,26.1295 40.731,24.7962 41.5,20.5 Z"/></g>
<g><path style="opacity:0.886" fill="#48466d" d="M 26.5,127.5 C 23.8333,127.5 21.1667,127.5 18.5,127.5C 12.2249,125.973 5.89159,124.306 -0.5,122.5C -0.5,121.833 -0.5,121.167 -0.5,120.5C 3.30598,120.556 7.13931,120.556 11,120.5C 14.9288,108.794 16.9288,96.7937 17,84.5C -0.51867,76.9357 -4.18534,64.9357 6,48.5C 8.33333,45.1667 10.6667,41.8333 13,38.5C 13.956,37.1059 15.2894,36.4393 17,36.5C 26.8304,38.5832 36.6637,40.5832 46.5,42.5C 47.5238,47.4548 48.3572,52.4548 49,57.5C 49.2285,50.3542 50.7285,43.5209 53.5,37C 63.6537,33.8762 73.9871,31.8762 84.5,31C 92.3738,39.0819 97.0405,48.7486 98.5,60C 98.3165,63.5526 97.1498,66.7193 95,69.5C 91.0152,72.9933 86.6819,75.9933 82,78.5C 82.385,90.722 84.385,102.722 88,114.5C 88.5613,115.022 89.228,115.355 90,115.5C 93.1368,114.639 96.3035,113.973 99.5,113.5C 99.6399,115.124 98.9733,116.29 97.5,117C 90.2066,118.692 82.8732,120.192 75.5,121.5C 74.5,121.167 73.5,120.833 72.5,120.5C 74.99,118.286 77.99,117.119 81.5,117C 82.8045,116.196 83.4712,115.029 83.5,113.5C 81.6515,103.757 79.4848,94.0901 77,84.5C 76.2155,82.714 75.0488,81.214 73.5,80C 65.5991,80.1589 58.7658,77.6589 53,72.5C 51.7977,69.2265 50.7977,65.8931 50,62.5C 49.0742,68.3958 47.4076,74.0625 45,79.5C 39.7919,84.2369 33.6253,86.4035 26.5,86C 24.3333,86.8333 22.8333,88.3333 22,90.5C 18.4595,101.182 16.6261,112.015 16.5,123C 19.5285,123.539 22.5285,124.206 25.5,125C 26.2524,125.671 26.5858,126.504 26.5,127.5 Z M 81.5,33.5 C 87.8489,39.5145 92.1823,46.8478 94.5,55.5C 80.5159,56.4992 66.5159,56.8326 52.5,56.5C 52.7814,50.5627 54.1148,44.896 56.5,39.5C 64.9514,37.481 73.2847,35.481 81.5,33.5 Z M 15.5,40.5 C 24.9261,41.6519 34.2594,43.3186 43.5,45.5C 45.0221,51.0517 45.6888,56.7184 45.5,62.5C 31.8293,62.6666 18.1626,62.4999 4.5,62C 6.7242,54.0508 10.3909,46.8841 15.5,40.5 Z"/></g>
<g><path style="opacity:0.916" fill="#48456d" d="M 137.5,38.5 C 148.5,38.5 159.5,38.5 170.5,38.5C 170.714,40.1439 170.38,41.6439 169.5,43C 160.84,43.4998 152.173,43.6664 143.5,43.5C 143.5,49.1667 143.5,54.8333 143.5,60.5C 150.167,60.5 156.833,60.5 163.5,60.5C 163.5,62.1667 163.5,63.8333 163.5,65.5C 156.833,65.5 150.167,65.5 143.5,65.5C 143.5,71.5 143.5,77.5 143.5,83.5C 152.5,83.5 161.5,83.5 170.5,83.5C 170.5,85.1667 170.5,86.8333 170.5,88.5C 159.5,88.5 148.5,88.5 137.5,88.5C 137.5,71.8333 137.5,55.1667 137.5,38.5 Z"/></g>
<g><path style="opacity:0.871" fill="#48466d" d="M 179.5,38.5 C 182.079,38.0833 184.246,38.75 186,40.5C 190.283,54.0171 194.949,67.3504 200,80.5C 204.132,67.1046 208.465,53.7713 213,40.5C 214.754,38.75 216.921,38.0833 219.5,38.5C 215.05,54.6834 209.884,70.6834 204,86.5C 202.82,87.6841 201.32,88.3507 199.5,88.5C 197.68,88.3507 196.18,87.6841 195,86.5C 189.116,70.6834 183.95,54.6834 179.5,38.5 Z"/></g>
<g><path style="opacity:0.891" fill="#48466d" d="M 233.5,38.5 C 244.833,38.5 256.167,38.5 267.5,38.5C 267.703,40.3904 267.037,41.8904 265.5,43C 256.84,43.4998 248.173,43.6664 239.5,43.5C 239.5,49.1667 239.5,54.8333 239.5,60.5C 246.5,60.5 253.5,60.5 260.5,60.5C 260.5,62.1667 260.5,63.8333 260.5,65.5C 253.5,65.5 246.5,65.5 239.5,65.5C 239.5,71.5 239.5,77.5 239.5,83.5C 248.833,83.5 258.167,83.5 267.5,83.5C 267.5,85.1667 267.5,86.8333 267.5,88.5C 256.167,88.5 244.833,88.5 233.5,88.5C 233.5,71.8333 233.5,55.1667 233.5,38.5 Z"/></g>
<g><path style="opacity:0.821" fill="#48466d" d="M 332.5,40.5 C 333.822,40.33 334.989,40.6634 336,41.5C 336.498,44.8168 336.665,48.1501 336.5,51.5C 339.833,51.5 343.167,51.5 346.5,51.5C 346.5,53.1667 346.5,54.8333 346.5,56.5C 343.167,56.5 339.833,56.5 336.5,56.5C 336.334,64.84 336.5,73.1733 337,81.5C 337.5,82 338,82.5 338.5,83C 341.817,83.4983 345.15,83.665 348.5,83.5C 348.5,85.1667 348.5,86.8333 348.5,88.5C 344.486,88.6655 340.486,88.4988 336.5,88C 334.714,87.2155 333.214,86.0488 332,84.5C 330.555,75.2736 330.055,65.9402 330.5,56.5C 328.5,56.5 326.5,56.5 324.5,56.5C 324.5,54.8333 324.5,53.1667 324.5,51.5C 326.5,51.5 328.5,51.5 330.5,51.5C 331.167,47.8333 331.833,44.1667 332.5,40.5 Z"/></g>
<g><path style="opacity:0.827" fill="#48466d" d="M 293.5,50.5 C 297.56,50.4847 301.56,50.9847 305.5,52C 308,53.1667 309.833,55 311,57.5C 311.5,67.828 311.666,78.1613 311.5,88.5C 309.5,88.5 307.5,88.5 305.5,88.5C 305.666,78.4944 305.5,68.4944 305,58.5C 304.5,58 304,57.5 303.5,57C 299.167,56.3333 294.833,56.3333 290.5,57C 289.333,58.1667 288.167,59.3333 287,60.5C 286.5,69.8274 286.334,79.1607 286.5,88.5C 284.5,88.5 282.5,88.5 280.5,88.5C 280.5,76.1667 280.5,63.8333 280.5,51.5C 281.833,51.5 283.167,51.5 284.5,51.5C 284.238,52.9778 284.571,54.3112 285.5,55.5C 287.725,52.9062 290.391,51.2395 293.5,50.5 Z"/></g>
<g><path style="opacity:0.84" fill="#48466d" d="M 368.5,51.5 C 374.5,51.5 380.5,51.5 386.5,51.5C 386.714,53.1439 386.38,54.6439 385.5,56C 379.833,56.3333 374.167,56.6667 368.5,57C 366.335,58.1607 365.335,59.994 365.5,62.5C 365.709,63.9945 366.376,65.1612 367.5,66C 372.833,67.3333 378.167,68.6667 383.5,70C 387.714,74.2002 388.548,79.0336 386,84.5C 384.786,86.0488 383.286,87.2155 381.5,88C 373.841,88.4997 366.174,88.6664 358.5,88.5C 358.286,86.8561 358.62,85.3561 359.5,84C 366.167,83.6667 372.833,83.3333 379.5,83C 382.93,80.6217 383.263,77.955 380.5,75C 376.23,73.7458 371.896,72.7458 367.5,72C 360.474,70.1221 357.974,65.6221 360,58.5C 361.866,54.7838 364.699,52.4505 368.5,51.5 Z"/></g>
</svg>
