<svg width="395.99999999999994" height="125.28386510941222" viewBox="0 0 406 128.44759907682163" class="looka-1j8o68f"><defs id="SvgjsDefs4441"></defs><g id="SvgjsG4442" featurekey="HKaMnE-0" transform="matrix(1.3828895483020112,0,0,1.3828895483020112,-19.188207055720408,-4.907206066600725)" fill="#48466d"><g xmlns="http://www.w3.org/2000/svg"><path d="M50.1,18.1C50.1,18,50,17.9,50,17.8c-1.2-1.8-3.4-2.8-5.5-2.2c-1.7,0.4-3,1.7-3.6,3.2c-1.6-0.5-3.4-0.1-4.7,1   c-1.7,1.4-2.2,3.7-1.5,5.8c0,0.1,0,0.2,0.1,0.3c1.7,3.7,6.7,4.6,10.4,4.8c0.3,0,0.7,0.1,1,0c0.8,0,1.1-0.5,1.5-1.1   c1-1.5,1.8-3.1,2.4-4.7C50.9,22.8,51.3,20.2,50.1,18.1z M47.3,25.2c-0.5,1-1,2.1-1.7,3c-1.2,0-2.3-0.2-3.4-0.4   c-1.9-0.4-4.3-1.1-5.2-3c0,0,0,0,0,0c-0.4-1.1-0.1-2.3,0.8-3c1-0.8,2.3-0.6,3.3,0.1c0.7,0.5,1.9-0.1,1.9-1c0-1.2,0.6-2.3,1.9-2.7   c1.1-0.3,2.3,0.1,3,1.1c0,0,0,0,0,0C48.9,21.1,48.1,23.4,47.3,25.2z"></path><path d="M53.6,19.5c0.4,0.4,0.8,0.3,1.4,0.2c1.3-0.2,2.6-0.6,3.8-1.2c1.6-0.7,3.2-1.8,3.7-3.6c0-0.1,0-0.1,0-0.2   c0.3-1.6-0.3-3.2-1.7-4.1c-1.1-0.7-2.5-0.7-3.6-0.2c-0.6-1.1-1.7-1.9-3-2c-1.7-0.2-3.1,0.8-3.9,2.2c0,0.1-0.1,0.1-0.1,0.2   c-1.1,2.9,1,6,2.8,8.1C53.2,19.1,53.4,19.3,53.6,19.5z M52,11.4C52,11.4,52,11.4,52,11.4c0.4-0.8,1.2-1.3,2.1-1.2   c0.9,0.1,1.5,0.9,1.7,1.8c0.1,0.7,1,1,1.5,0.5c0.7-0.6,1.6-0.9,2.4-0.4c0.8,0.4,1.1,1.3,0.9,2.2c0,0,0,0,0,0   c-0.5,1.5-2.1,2.3-3.5,2.8c-0.8,0.3-1.7,0.5-2.5,0.7c-0.6-0.6-1.1-1.3-1.6-2.1C52.3,14.5,51.5,12.9,52,11.4z"></path><path d="M43.8,7.5c0.6,1.4,2.5,1.8,3.9,1.9c0.1,0,0.3,0,0.4,0c0.3,0,0.4-0.2,0.6-0.4c0.4-0.6,0.7-1.2,1-1.8   c0.3-0.8,0.5-1.8,0.1-2.6c0,0,0-0.1-0.1-0.1c-0.5-0.7-1.3-1.1-2.1-0.9c-0.6,0.2-1.2,0.6-1.4,1.2c-0.6-0.2-1.3-0.1-1.8,0.3   C43.7,5.8,43.5,6.7,43.8,7.5C43.8,7.5,43.8,7.5,43.8,7.5z M45,6c0.4-0.3,0.9-0.2,1.3,0.1C46.5,6.2,47,6,47,5.7c0-0.5,0.3-0.9,0.7-1   c0.4-0.1,0.9,0.1,1.1,0.4c0,0,0,0,0,0c0.4,0.7,0,1.6-0.3,2.3c-0.2,0.4-0.4,0.8-0.7,1.1c-0.4,0-0.9-0.1-1.3-0.2   c-0.7-0.2-1.6-0.5-2-1.2c0,0,0,0,0,0C44.5,6.7,44.6,6.2,45,6z"></path><path d="M47.3,35.5c0-0.1-0.1-0.2-0.1-0.2c-0.1-0.2-0.3-0.4-0.6-0.4c-4.7-1-9.4-2-14.1-3c-1.7-0.4-3.3-0.7-5-1.1   c-0.4-0.1-0.9-0.2-1.3-0.3c-1.1-0.2-1.9,1.3-2.5,2c-4,4.6-7,10-8.2,16c-0.5,2.3-0.9,4.6,0,6.9c0.7,1.7,1.8,3.1,3.2,4.3   c1.2,1.1,2.6,2,4,2.8l0,0c0,0,0,0,0,0c0.9,0.5,1.8,1,2.8,1.4c1.9,1.2,2.7,3,1.4,9c-0.1,0.4-0.2,0.8-0.3,1.2c-1,4.7-2,9.4-3,14.1   c-0.7,3.3-1.3,4.2-2.9,3.9c-1.2-0.3-2.4-0.5-3.6-0.8c-0.7-0.2-1.4-0.3-2.1-0.5c-1.2-0.3-1.6,1.6-0.4,1.9c5,1.1,10.1,2.2,15.1,3.2   c0.7,0.2,1.4,0.3,2.1,0.5c1.2,0.3,1.6-1.6,0.4-1.9c-1.9-0.4-3.8-0.8-5.7-1.2c-1.5-0.3-1.7-1.3-1.2-4c0.4-1.8,0.8-3.5,1.1-5.3   c0.8-3.8,1.6-7.6,2.4-11.4c1.2-5.4,2.7-6.6,4.8-6.9c1,0,1.9,0,2.9-0.1c0.1,0,0.1,0,0.2,0l-0.1,0c1.2-0.1,2.4-0.3,3.6-0.6   c1.7-0.4,3.5-1.1,4.9-2.2c1.6-1.3,2.6-2.9,3.1-4.8c1.8-6,1.7-12.2,0.2-18.2C48.2,38.2,47.8,36.9,47.3,35.5z M24.6,34.3   c0.5-0.6,1.1-1.2,1.6-1.8c5.2,1.1,10.5,2.2,15.7,3.3c1.2,0.3,2.5,0.5,3.7,0.8c1.2,3.7,2.1,7.5,2.2,11.4c0,0.5,0,1,0,1.5H17.2   c0.3-1.6,0.7-3.2,1.3-4.7C19.8,40.9,22,37.4,24.6,34.3z"></path><path d="M85.1,86.3c-0.7,0.2-1.4,0.3-2.1,0.5c-1.2,0.3-2.4,0.5-3.6,0.8c-1.6,0.3-2.2-0.6-2.9-3.9c-1-4.7-2-9.4-3-14.1   c-0.1-0.4-0.2-0.8-0.3-1.2c-1.3-6-0.5-7.8,1.4-9c0.9-0.4,1.9-0.9,2.8-1.4c0,0,0,0,0,0l0,0c1.4-0.8,2.8-1.7,4-2.8   c1.4-1.2,2.5-2.7,3.2-4.3c0.9-2.2,0.4-4.6,0-6.9c-1.2-6-4.2-11.4-8.2-16c-0.6-0.7-1.5-2.2-2.5-2c-0.4,0.1-0.9,0.2-1.3,0.3   c-1.7,0.4-3.3,0.7-5,1.1c-4.7,1-9.4,2-14.1,3c-0.3,0.1-0.5,0.2-0.6,0.4c0,0.1-0.1,0.1-0.1,0.2c-0.5,1.4-0.9,2.8-1.3,4.2   c-1.5,6-1.6,12.3,0.2,18.2c0.6,2,1.5,3.6,3.1,4.8c1.4,1.1,3.2,1.7,4.9,2.2c1.2,0.3,2.4,0.5,3.6,0.6l-0.1,0c0.1,0,0.1,0,0.2,0   c1,0.1,1.9,0.1,2.9,0.1c2.1,0.3,3.6,1.6,4.8,6.9c0.8,3.8,1.6,7.6,2.4,11.4c0.4,1.8,0.8,3.5,1.1,5.3c0.5,2.8,0.3,3.7-1.2,4   c-1.9,0.4-3.8,0.8-5.7,1.2c-1.2,0.3-0.8,2.2,0.4,1.9c0.7-0.2,1.4-0.3,2.1-0.5c5-1.1,10.1-2.2,15.1-3.2C86.7,87.9,86.3,86,85.1,86.3   z M52.2,43.5c0.1-3.9,0.9-7.7,2.2-11.4c1.2-0.3,2.5-0.5,3.7-0.8c5.2-1.1,10.5-2.2,15.7-3.3c0.6,0.6,1.1,1.2,1.6,1.8   c2.6,3.1,4.8,6.6,6.2,10.4c0.5,1.5,1,3.1,1.3,4.7H52.2C52.2,44.5,52.2,44,52.2,43.5z"></path></g></g><g id="SvgjsG4443" featurekey="textGroupContainer" transform="matrix(1,0,0,1,405,14)" fill="#48466d"><rect xmlns="http://www.w3.org/2000/svg" y="0" height="1" width="1" opacity="0"></rect><rect xmlns="http://www.w3.org/2000/svg" y="0" x="-285" width="3" height="100"></rect></g><g id="SvgjsG4444" featurekey="J3GnXt-0" transform="matrix(3.5739811814097573,0,0,3.5739811814097573,130.85203763718047,17.556112911541454)" fill="#48466d"><path d="M2 20 l0 -14 l9.1 0 l0 0.9 l-0.4 0.4 l-7.2 0 l0 4.9 l5.7 0 l0 1.3 l-5.7 0 l0 5.2 l7.6 0 l0 1.3 l-9.1 0 z M19.310000000000002 18.2 l0.1 0 l4 -12.2 l1.5 0 l0 0.6 l-4.6 13.4 l-1.9 0 l-4.6 -13.4 l0 -0.6 l1.5 0 z M29.020000000000003 20 l0 -14 l9.1 0 l0 0.9 l-0.4 0.4 l-7.2 0 l0 4.9 l5.7 0 l0 1.3 l-5.7 0 l0 5.2 l7.6 0 l0 1.3 l-9.1 0 z M50.63 20 l-1.4 0 l0 -7.6 c0 -0.9 -0.7 -1.6 -1.6 -1.6 l-1.8 0 c-1.5 0 -2.3 1.8 -2.3 1.8 l0 7.4 l-1.4 0 l0 -10.2 l0.9 0 l0.2 1.4 l0.1 0 s0.8 -1.6 2.5 -1.6 l1.8 0 c1.8 0 3 1.2 3 2.8 l0 7.6 z M54.440000000000005 11 l0 -1.2 l1.6 0 l0.6 -3 l0.8 0 l0 3 l2.9 0 l0 1.2 l-2.9 0 l0 6.2 c0 0.9 0.7 1.6 1.6 1.6 l1.9 0 l0 1.2 l-1.9 0 c-1.8 0 -3 -1.2 -3 -2.8 l0 -6.2 l-1.6 0 z M65.55000000000001 12.6 c0 0.8 0.4 1.22 1.3 1.4 l2.9 0.6 c1.4 0.3 2.2 1.1 2.2 2.6 c0 1.6 -1.2 2.8 -3 2.8 l-4.9 0 l0 -1.2 l4.9 0 c0.9 0 1.6 -0.7 1.6 -1.6 c0 -0.8 -0.4 -1.22 -1.3 -1.4 l-2.9 -0.6 c-1.4 -0.28 -2.2 -1.1 -2.2 -2.6 c0 -1.62 1.2 -2.8 3 -2.8 l4.5 0 l0 0.8 l-0.4 0.4 l-4.1 0 c-0.9 0 -1.6 0.7 -1.6 1.6 z"></path></g></svg>